<svg xmlns="http://www.w3.org/2000/svg" xml:space="preserve" viewBox="0 0 512 512">
  <path
    d="M441.52 473.7v-68.1l.01.01V285.37v111.92-125.15.03V38.32a45.44 45.44 0 0 0-45.45-45.46H115.9A45.44 45.44 0 0 0 70.46 38.3v435.4a45.44 45.44 0 0 0 45.44 45.43h280.18a45.44 45.44 0 0 0 45.44-45.43zm-348.76 0V38.3a23.2 23.2 0 0 1 23.14-23.15h280.18a23.2 23.2 0 0 1 23.15 23.15v435.4a23.18 23.18 0 0 1-23.15 23.13H115.9a23.18 23.18 0 0 1-23.14-23.13Z"
    class="st0" />
  <g fill="none" stroke="#2ca9bc" stroke-linecap="round" stroke-linejoin="round" stroke-width="45.65">
    <path d="M197.63 157.35V301.6a86.73 86.73 0 0 1-25.33 61.16" />
    <path d="M311.73 157.35V317.1a45.65 45.65 0 0 0 45.65 45.65" data-name="secondary" />
    <path d="M129.16 180.17h0a77.82 77.82 0 0 1 55-22.82h118.22a77.82 77.82 0 0 0 55-22.82h0" data-name="secondary" />
  </g>
</svg>